<svg xmlns="http://www.w3.org/2000/svg" width="32" height="32" viewBox="0 0 32 32">
  <rect width="32" height="32" rx="6" fill="#0a0e27"/>
  <g transform="translate(5, 4)">
    <path d="M2 6 L11 1 L20 6 L20 18 C20 19.1 19.1 20 18 20 L4 20 C2.9 20 2 19.1 2 18 Z" fill="#FFD208" opacity="0.9"/>
    <path d="M2 6 L11 12 L20 6" fill="none" stroke="#0a0e27" stroke-width="1.5"/>
    <rect x="7" y="10" width="8" height="7" rx="1.5" fill="#0a0e27"/>
    <path d="M9 10 L9 8.5 C9 7.1 10.1 6 11.5 6 C12.9 6 14 7.1 14 8.5 L14 10" fill="none" stroke="#0a0e27" stroke-width="1.5" stroke-linecap="round"/>
    <circle cx="11" cy="13.5" r="1" fill="#FFD208"/>
  </g>
</svg>
